{"glyphs":{"0":{"ha":883,"x_min":60,"x_max":823,"o":"m 271 511 q 273 411 271 463 q 282 312 275 360 q 301 221 289 264 q 333 145 313 178 q 381 95 353 113 q 450 76 410 76 q 531 107 499 76 q 580 191 562 138 q 605 313 598 243 q 612 459 612 382 q 609 570 612 515 q 600 672 607 624 q 582 762 593 721 q 552 833 570 804 q 507 880 533 863 q 444 897 480 897 q 361 865 394 897 q 308 781 328 834 q 280 658 288 728 q 271 511 271 588 m 60 482 q 71 601 60 541 q 103 719 82 662 q 157 826 125 776 q 232 914 189 876 q 329 973 275 951 q 448 995 383 995 q 569 974 515 995 q 664 915 623 952 q 736 829 706 878 q 785 723 766 779 q 813 607 804 667 q 823 489 823 547 q 812 371 823 431 q 781 254 802 311 q 729 147 760 197 q 655 59 697 96 q 559 -1 613 21 q 441 -22 506 -22 q 315 -1 371 -22 q 217 57 259 20 q 145 143 175 94 q 96 248 115 192 q 69 365 77 304 q 60 482 60 425 z "},"1":{"ha":564,"x_min":9,"x_max":509,"o":"m 58 679 l 9 762 l 326 995 l 410 995 l 410 228 q 410 191 410 209 q 409 156 410 172 q 407 125 408 139 q 405 103 406 112 l 509 107 l 509 0 l 111 0 l 111 92 q 152 96 134 93 q 183 111 171 99 q 203 146 196 123 q 210 212 210 170 l 210 769 l 58 679 z "},"2":{"ha":740,"x_min":54,"x_max":673,"o":"m 323 896 q 256 879 286 896 q 212 838 227 861 q 233 801 227 822 q 239 766 239 781 q 234 737 239 753 q 217 708 229 722 q 188 686 206 695 q 144 677 170 677 q 106 686 122 677 q 78 707 90 694 q 61 739 67 721 q 56 778 56 758 q 64 823 56 799 q 91 872 73 848 q 134 918 108 896 q 193 957 159 940 q 268 985 227 975 q 358 995 309 995 q 470 981 414 995 q 570 937 526 968 q 642 856 614 905 q 670 732 670 806 q 657 660 670 697 q 611 575 645 622 q 518 471 578 529 q 364 336 458 412 q 298 276 326 304 q 251 222 270 247 q 221 177 232 197 q 208 143 211 157 l 480 136 l 491 136 q 530 139 512 136 q 559 153 547 143 q 578 181 572 163 q 585 226 585 198 l 673 226 l 663 0 l 54 0 q 73 129 54 72 q 123 232 92 185 q 192 317 153 278 q 271 393 231 356 q 357 482 321 440 q 414 564 392 524 q 447 640 437 603 q 457 715 457 677 q 451 781 457 749 q 430 839 445 813 q 389 880 414 864 q 323 896 363 896 z "},"3":{"ha":777,"x_min":49,"x_max":722,"o":"m 49 182 q 56 222 49 203 q 76 256 63 241 q 106 279 88 271 q 146 288 124 288 q 188 279 171 288 q 214 257 204 270 q 229 228 224 243 q 233 198 233 212 q 228 167 233 185 q 212 134 223 149 q 231 111 218 121 q 261 94 244 101 q 297 83 278 87 q 336 79 317 79 q 413 93 380 79 q 468 132 446 107 q 501 190 490 157 q 512 263 512 224 q 503 336 512 300 q 469 400 493 372 q 406 447 446 429 q 307 465 366 465 q 292 465 302 465 q 272 464 283 465 q 251 463 261 463 q 235 461 241 462 l 235 561 q 248 559 242 559 q 258 559 253 559 q 415 605 361 557 q 469 741 469 652 q 462 803 469 774 q 439 853 455 832 q 399 885 424 873 q 340 897 375 897 q 304 891 321 897 q 273 878 287 886 q 248 860 258 870 q 231 839 237 850 q 248 804 243 823 q 253 770 253 784 q 248 742 253 758 q 232 713 243 727 q 202 691 220 700 q 159 682 184 682 q 121 690 137 682 q 93 712 104 699 q 76 744 82 726 q 71 783 71 762 q 89 850 71 813 q 143 920 106 888 q 234 973 180 951 q 362 995 289 995 q 483 982 427 995 q 582 940 540 969 q 647 863 623 910 q 671 748 671 816 q 660 688 671 721 q 624 624 649 655 q 560 568 600 593 q 463 530 520 543 l 463 529 q 578 492 529 517 q 659 433 627 467 q 706 357 690 399 q 722 272 722 316 q 694 146 722 201 q 617 54 667 91 q 499 -3 568 16 q 350 -22 431 -22 q 214 -4 271 -22 q 121 44 157 14 q 66 110 84 73 q 49 182 49 146 z "},"4":{"ha":760,"x_min":17,"x_max":713,"o":"m 578 251 l 578 228 q 577 191 578 209 q 576 156 577 172 q 575 125 576 139 q 572 103 574 112 l 677 107 l 677 0 l 280 0 l 280 92 q 322 96 303 93 q 353 111 340 99 q 372 146 366 123 q 379 212 379 170 l 379 251 l 17 251 l 17 382 l 494 995 l 578 995 l 578 377 l 713 377 l 713 251 l 578 251 m 146 380 l 379 380 l 379 686 l 146 380 z "},"5":{"ha":750,"x_min":61,"x_max":705,"o":"m 229 127 q 246 106 234 116 q 274 90 258 97 q 307 80 290 83 q 338 76 323 76 q 408 94 379 76 q 456 139 437 111 q 483 202 474 167 q 491 273 491 237 q 490 320 491 294 q 483 373 488 346 q 467 425 477 399 q 437 470 456 450 q 392 502 419 490 q 325 514 364 514 q 251 503 294 514 q 158 463 207 492 l 98 509 l 94 972 l 453 972 q 496 976 477 972 q 529 988 515 979 q 551 1016 543 998 q 558 1063 558 1034 l 646 1063 l 635 837 l 199 829 l 199 582 q 236 595 215 589 q 279 605 256 601 q 324 612 301 610 q 368 615 347 615 q 518 590 454 615 q 623 521 581 564 q 685 421 665 478 q 705 303 705 365 q 675 161 705 222 q 594 60 644 100 q 480 -2 544 19 q 348 -22 416 -22 q 226 -5 279 -22 q 136 39 173 12 q 80 100 100 66 q 61 168 61 134 q 68 208 61 189 q 87 241 75 227 q 117 265 100 256 q 157 274 135 274 q 199 265 182 274 q 226 243 216 256 q 240 214 236 230 q 245 184 245 199 q 241 157 245 173 q 229 127 237 141 z "},"6":{"ha":799,"x_min":64,"x_max":739,"o":"m 404 509 q 361 502 382 509 q 322 482 340 494 q 289 453 304 469 q 266 417 275 436 q 269 347 266 385 q 278 271 271 309 q 295 197 284 233 q 321 135 305 162 q 357 92 336 108 q 406 75 378 75 q 466 91 442 75 q 504 134 490 107 q 523 194 517 160 q 529 264 529 228 q 528 311 529 285 q 522 364 526 337 q 510 417 518 391 q 488 464 502 444 q 453 496 474 484 q 404 509 433 509 m 698 808 q 692 772 698 790 q 675 740 686 754 q 647 718 664 726 q 610 709 631 709 q 566 718 584 709 q 538 740 549 726 q 523 768 527 753 q 518 798 518 783 q 522 827 518 809 q 538 858 526 844 q 505 885 526 873 q 451 897 483 897 q 389 882 416 897 q 341 839 361 866 q 307 777 321 812 q 284 702 293 741 q 271 621 275 662 q 265 541 267 579 q 298 569 277 555 q 345 594 319 583 q 399 612 371 606 q 455 619 428 619 q 583 595 529 619 q 671 529 636 572 q 723 427 706 486 q 739 298 739 368 q 714 174 739 233 q 643 72 688 116 q 535 3 597 28 q 398 -22 472 -22 q 241 11 305 -22 q 138 105 178 43 q 81 253 98 166 q 64 448 64 340 q 70 544 64 488 q 93 661 77 600 q 136 781 109 722 q 206 888 163 841 q 307 965 248 936 q 444 995 366 995 q 558 978 510 995 q 637 933 606 960 q 683 873 668 906 q 698 808 698 840 z "},"7":{"ha":651,"x_min":20,"x_max":623,"o":"m 214 835 l 206 835 q 166 830 184 835 q 135 813 148 825 q 116 783 123 802 q 109 736 109 764 l 20 736 l 31 972 l 623 972 l 623 846 q 542 660 576 750 q 480 479 508 570 q 429 290 453 387 q 377 83 404 193 q 364 44 372 63 q 343 11 355 26 q 315 -13 331 -4 q 278 -22 298 -22 q 241 -15 256 -22 q 217 4 226 -8 q 203 30 208 16 q 199 60 199 45 q 203 94 199 75 q 218 146 207 113 q 251 232 230 180 q 305 364 271 283 q 389 559 339 445 q 506 831 438 674 l 214 835 z "},"8":{"ha":795,"x_min":78,"x_max":736,"o":"m 695 759 q 680 689 695 723 q 642 627 665 656 q 588 573 618 597 q 530 532 559 549 l 530 531 q 686 392 636 465 q 736 239 736 319 q 708 122 736 171 q 632 40 680 73 q 523 -7 585 8 q 393 -22 460 -22 q 324 -17 360 -22 q 253 0 288 -12 q 186 30 218 12 q 131 76 155 49 q 92 138 106 102 q 78 219 78 174 q 94 297 78 259 q 135 368 109 334 q 194 429 161 401 q 261 476 227 456 l 261 477 q 183 539 215 507 q 131 604 151 571 q 102 669 111 637 q 94 730 94 701 q 123 847 94 798 q 198 930 152 897 q 299 979 243 963 q 408 995 355 995 q 514 979 462 995 q 606 934 566 964 q 670 860 646 904 q 695 759 695 816 m 537 210 q 528 263 537 235 q 498 318 519 290 q 443 373 477 346 q 357 427 408 401 q 306 376 327 404 q 272 321 286 349 q 253 268 259 293 q 247 223 247 242 q 258 164 247 191 q 290 117 270 137 q 338 86 311 98 q 398 75 366 75 q 456 86 431 75 q 500 115 482 96 q 528 157 518 133 q 537 210 537 182 m 287 768 q 299 714 287 741 q 332 664 311 688 q 380 620 353 640 q 439 588 408 600 q 483 627 463 606 q 516 672 502 649 q 537 718 530 695 q 545 760 545 741 q 535 819 545 793 q 508 862 525 845 q 468 888 491 880 q 419 897 446 897 q 364 887 389 897 q 322 859 340 876 q 296 818 305 841 q 287 768 287 794 z "},"9":{"ha":800,"x_min":60,"x_max":734,"o":"m 397 464 q 440 471 419 464 q 478 491 460 478 q 510 520 496 503 q 533 555 524 536 q 527 684 533 623 q 504 793 520 746 q 461 869 488 840 q 393 897 434 897 q 338 881 361 897 q 300 839 315 865 q 277 779 285 812 q 270 709 270 745 q 271 662 270 688 q 277 608 273 635 q 290 555 281 581 q 313 509 298 529 q 347 476 327 488 q 397 464 368 464 m 100 160 q 107 197 100 178 q 125 230 113 216 q 153 254 136 245 q 192 263 170 263 q 235 255 218 263 q 262 233 252 246 q 276 204 272 220 q 280 175 280 189 q 279 161 280 169 q 275 145 278 153 q 269 129 273 137 q 260 116 265 121 q 293 89 271 100 q 347 77 315 77 q 432 103 396 77 q 490 175 467 130 q 524 278 513 220 q 534 399 534 336 q 534 415 534 407 q 534 431 534 423 q 501 403 522 417 q 455 378 480 389 q 402 360 431 367 q 347 353 374 353 q 220 377 274 353 q 130 445 165 401 q 77 547 94 488 q 60 677 60 606 q 84 805 60 747 q 153 905 109 863 q 258 971 197 947 q 394 995 319 995 q 552 960 487 995 q 657 862 616 924 q 716 713 698 799 q 734 525 734 627 q 729 413 734 473 q 708 291 723 352 q 666 174 693 231 q 597 74 640 117 q 495 4 555 30 q 354 -22 435 -22 q 237 -7 286 -22 q 159 34 189 9 q 114 93 128 60 q 100 160 100 125 z "}," ":{"ha":366,"x_min":0,"x_max":0,"o":""},"!":{"ha":358,"x_min":77,"x_max":280,"o":"m 279 85 q 271 43 279 63 q 248 9 262 24 q 216 -14 234 -5 q 178 -22 197 -22 q 139 -14 157 -22 q 107 9 121 -5 q 86 43 94 24 q 78 85 78 63 q 86 128 78 108 q 108 163 94 148 q 140 186 122 178 q 179 195 159 195 q 219 186 201 195 q 251 163 237 178 q 272 128 264 148 q 279 85 279 108 m 226 296 l 132 296 l 79 869 q 83 913 77 891 q 101 954 88 936 q 133 983 113 972 q 179 995 153 995 q 227 983 207 995 q 258 954 246 972 q 275 913 271 936 q 278 869 280 891 l 226 296 z "},"\"":{"ha":452,"x_min":60,"x_max":393,"o":"m 71 682 l 60 995 l 194 995 l 182 682 l 71 682 m 270 682 l 258 995 l 393 995 l 381 682 l 270 682 z "},"#":{"ha":1210,"x_min":51,"x_max":1158,"o":"m 225 -22 l 281 214 l 51 214 l 80 337 l 307 337 l 376 611 l 142 611 l 172 734 l 403 734 l 465 995 l 604 995 l 544 734 l 785 734 l 846 995 l 985 995 l 926 734 l 1158 734 l 1158 733 l 1131 611 l 900 611 l 834 337 l 1066 337 l 1038 214 l 809 214 l 755 -22 l 607 -22 l 663 214 l 427 214 l 372 -22 l 225 -22 m 452 337 l 689 337 l 758 611 l 518 611 l 452 337 z "},"$":{"ha":817,"x_min":70,"x_max":758,"o":"m 419 78 q 485 89 456 78 q 533 118 513 99 q 563 162 553 136 q 573 217 573 187 q 556 277 573 252 q 511 321 539 302 q 447 355 484 340 q 370 387 410 370 q 256 442 310 411 q 160 514 201 473 q 94 608 119 555 q 70 730 70 661 q 82 815 70 770 q 125 899 94 860 q 211 964 157 937 q 348 994 264 990 l 348 1162 l 478 1162 l 477 981 q 589 928 538 964 l 590 928 l 585 985 l 692 985 l 692 661 l 602 661 q 530 836 583 777 q 381 895 478 895 q 327 886 351 895 q 286 861 303 877 q 260 823 269 845 q 250 775 250 801 q 261 718 250 743 q 296 672 271 694 q 361 630 321 651 q 461 581 401 608 q 531 548 496 566 q 599 510 566 531 q 661 464 632 489 q 712 409 690 439 q 746 340 733 378 q 758 258 758 303 q 741 157 758 203 q 689 75 723 111 q 606 15 656 39 q 493 -18 557 -9 l 492 -214 l 366 -214 l 364 -18 q 275 5 319 -11 q 189 46 230 21 l 187 46 l 192 -13 l 85 -13 l 85 312 l 176 312 q 258 136 195 194 q 419 78 321 78 z "},"%":{"ha":1256,"x_min":57,"x_max":1200,"o":"m 227 739 q 231 682 227 713 q 245 625 235 651 q 274 580 256 598 q 321 562 292 562 q 363 576 346 562 q 391 612 380 590 q 405 660 401 633 q 410 710 410 686 q 405 768 410 737 q 390 826 401 800 q 362 870 380 852 q 318 888 345 888 q 274 872 292 888 q 246 833 256 856 q 231 785 235 810 q 227 739 227 759 m 1070 903 l 268 -23 l 178 61 l 969 995 l 1070 903 m 57 718 q 75 816 57 766 q 126 905 92 865 q 208 970 159 945 q 320 995 257 995 q 432 971 383 995 q 513 910 480 948 q 563 825 546 873 q 580 730 580 778 q 560 625 580 675 q 505 536 540 574 q 422 474 469 497 q 320 451 375 451 q 207 473 256 451 q 124 533 158 496 q 74 618 91 570 q 57 718 57 667 m 848 265 q 852 209 848 239 q 866 151 856 178 q 895 107 876 125 q 941 89 913 89 q 984 103 966 89 q 1011 138 1001 117 q 1026 186 1021 160 q 1030 237 1030 212 q 1026 295 1030 264 q 1011 353 1021 326 q 983 397 1000 379 q 939 414 965 414 q 895 398 912 414 q 866 360 877 382 q 852 311 856 337 q 848 265 848 286 m 677 245 q 695 342 677 293 q 746 432 713 392 q 830 496 780 471 q 941 522 880 522 q 1052 498 1004 522 q 1134 437 1101 475 q 1183 352 1166 399 q 1200 257 1200 304 q 1180 152 1200 202 q 1125 62 1160 101 q 1043 1 1090 24 q 941 -22 996 -22 q 827 0 876 -22 q 745 60 779 22 q 694 145 711 97 q 677 245 677 193 z "},"&":{"ha":930,"x_min":33,"x_max":937,"o":"m 772 363 q 745 214 772 283 l 767 195 q 818 154 793 173 q 865 121 843 134 q 905 99 886 107 q 937 92 923 92 l 937 0 l 789 0 q 739 20 777 0 q 652 79 702 41 q 525 4 597 31 q 363 -22 452 -22 q 243 -7 302 -22 q 137 39 184 7 q 61 119 90 71 q 33 237 33 168 q 49 325 33 283 q 94 401 65 366 q 162 463 123 435 q 249 507 202 490 q 189 583 212 548 q 154 648 166 617 q 138 708 142 679 q 134 766 134 736 q 154 860 135 818 q 208 932 174 903 q 291 979 243 962 q 399 995 340 995 q 499 977 454 995 q 575 929 544 960 q 624 860 607 899 q 642 777 642 820 q 625 694 642 734 q 580 621 608 655 q 516 557 552 586 q 441 506 480 528 q 466 480 446 501 q 518 427 487 458 q 588 359 549 396 q 665 285 626 321 l 667 285 q 672 319 671 301 q 674 354 674 336 q 669 402 674 382 q 655 434 665 422 q 632 453 646 447 q 600 460 618 458 l 600 549 l 833 549 l 833 444 q 800 447 820 445 q 758 450 779 448 l 758 448 q 772 363 772 416 m 408 77 q 503 94 459 77 q 581 142 547 111 l 511 205 q 439 271 471 241 q 381 328 408 301 q 332 379 355 355 q 289 428 310 404 q 256 391 269 412 q 235 348 243 370 q 224 307 227 327 q 220 271 220 286 q 270 126 220 176 q 408 77 319 77 m 300 772 q 307 726 300 751 q 323 675 313 701 q 348 625 334 650 q 380 580 363 600 q 426 626 406 600 q 458 680 445 652 q 478 735 471 708 q 484 783 484 762 q 460 865 484 834 q 393 897 436 897 q 327 865 353 897 q 300 772 300 833 z "},"'":{"ha":262,"x_min":59,"x_max":203,"o":"m 72 682 l 59 995 l 203 995 l 191 682 l 72 682 z "},"(":{"ha":412,"x_min":34,"x_max":397,"o":"m 222 332 q 225 253 222 300 q 235 147 228 205 q 256 26 243 90 q 288 -101 269 -38 q 334 -222 307 -163 q 397 -328 361 -281 l 347 -376 q 276 -301 313 -345 q 205 -205 239 -258 q 139 -91 170 -153 q 84 39 108 -29 q 47 181 61 107 q 34 332 34 254 q 47 483 34 408 q 84 628 61 558 q 138 762 107 698 q 204 880 170 825 q 275 980 239 935 q 347 1055 312 1024 l 397 1007 q 334 900 361 960 q 288 775 307 840 q 256 645 269 711 q 235 520 243 579 q 225 412 228 460 q 222 332 222 363 z "},")":{"ha":412,"x_min":14,"x_max":378,"o":"m 190 347 q 187 426 190 378 q 176 532 184 474 q 156 653 169 589 q 124 780 143 717 q 77 901 104 842 q 14 1007 50 960 l 64 1055 q 136 980 99 1023 q 207 884 172 937 q 273 770 241 831 q 327 640 304 708 q 364 498 351 572 q 378 347 378 425 q 364 196 378 271 q 328 51 351 121 q 273 -83 304 -19 q 208 -201 242 -146 q 136 -301 173 -256 q 65 -376 100 -345 l 14 -328 q 77 -221 50 -281 q 124 -97 104 -161 q 156 34 143 -32 q 176 159 169 100 q 187 267 184 218 q 190 347 190 316 z "},"*":{"ha":741,"x_min":60,"x_max":681,"o":"m 337 719 q 308 824 317 781 q 298 895 298 867 q 301 931 298 913 q 312 963 304 949 q 334 986 320 977 q 371 995 349 995 q 407 986 393 995 q 429 963 421 977 q 440 931 437 949 q 443 895 443 913 q 434 823 443 866 q 404 719 425 781 q 475 767 444 748 q 530 798 505 787 q 573 814 554 810 q 610 819 593 819 q 634 815 621 819 q 657 804 646 812 q 674 782 667 795 q 681 747 681 768 q 674 720 681 732 q 657 699 668 708 q 633 683 647 690 q 605 672 619 676 q 532 659 575 663 q 425 654 490 654 q 510 587 477 616 q 559 535 543 558 q 581 499 572 518 q 589 463 589 481 q 584 441 589 452 q 569 419 578 429 q 547 403 559 410 q 519 397 534 397 q 476 413 496 397 q 443 449 457 429 q 408 513 425 473 q 371 615 390 553 q 333 513 351 553 q 298 450 315 474 q 263 413 282 429 q 221 397 245 397 q 194 403 207 397 q 172 419 182 410 q 157 440 163 429 q 152 463 152 452 q 160 503 152 483 q 188 546 169 523 q 239 595 208 569 q 316 654 270 622 q 207 659 250 654 q 136 673 165 663 q 107 684 121 677 q 83 700 94 690 q 66 721 73 709 q 60 748 60 732 q 66 782 60 768 q 83 804 73 796 q 105 816 93 812 q 129 820 117 820 q 167 815 147 820 q 212 798 187 810 q 267 767 237 786 q 337 719 298 747 z "},"+":{"ha":731,"x_min":56,"x_max":675,"o":"m 56 507 l 295 506 l 295 754 l 432 754 l 432 506 l 675 505 l 675 377 l 432 376 l 432 114 l 295 114 l 295 376 l 56 375 l 56 507 z "},",":{"ha":347,"x_min":61,"x_max":288,"o":"m 288 44 q 257 -101 288 -24 q 161 -259 227 -179 l 107 -220 q 132 -182 118 -206 q 158 -127 146 -157 q 178 -65 170 -98 q 186 -1 186 -32 q 170 -5 176 -5 q 157 -6 164 -6 q 121 -1 138 -6 q 91 16 104 5 q 69 44 77 27 q 61 86 61 62 q 68 126 61 107 q 90 159 76 145 q 122 182 103 174 q 165 191 141 191 q 219 179 196 191 q 257 148 242 168 q 280 101 273 128 q 288 44 288 75 z "},"-":{"ha":654,"x_min":71,"x_max":583,"o":"m 71 511 l 583 511 l 583 366 l 71 361 l 71 511 z "},".":{"ha":324,"x_min":61,"x_max":262,"o":"m 262 85 q 255 43 262 63 q 236 9 248 24 q 205 -14 223 -5 q 164 -22 186 -22 q 122 -14 141 -22 q 90 9 103 -5 q 68 43 76 24 q 61 85 61 63 q 69 128 61 108 q 91 163 77 148 q 123 186 105 178 q 162 195 142 195 q 202 186 184 195 q 234 163 220 178 q 255 128 248 148 q 262 85 262 108 z "},"/":{"ha":971,"x_min":35,"x_max":937,"o":"m 937 968 l 143 -376 l 35 -305 l 810 1049 l 937 968 z "},":":{"ha":344,"x_min":71,"x_max":273,"o":"m 273 85 q 266 43 273 63 q 246 9 258 24 q 215 -14 233 -5 q 174 -22 197 -22 q 132 -14 151 -22 q 100 9 113 -5 q 79 43 86 24 q 71 85 71 63 q 79 128 71 108 q 101 163 87 148 q 134 186 115 178 q 172 195 152 195 q 212 186 194 195 q 244 163 231 178 q 265 128 258 148 q 273 85 273 108 m 273 645 q 266 603 273 623 q 246 569 258 583 q 215 546 233 554 q 174 537 197 537 q 132 546 151 537 q 100 569 113 554 q 79 603 86 583 q 71 645 71 623 q 79 687 71 667 q 101 722 87 707 q 134 746 115 737 q 172 754 152 754 q 212 746 194 754 q 244 722 231 737 q 265 687 258 707 q 273 645 273 667 z "},";":{"ha":370,"x_min":70,"x_max":297,"o":"m 297 44 q 266 -101 297 -24 q 170 -259 235 -179 l 116 -220 q 141 -182 127 -206 q 167 -127 155 -157 q 187 -65 179 -98 q 195 -1 195 -32 q 179 -5 185 -5 q 165 -6 173 -6 q 130 -1 147 -6 q 99 16 113 5 q 78 44 86 27 q 70 86 70 62 q 77 126 70 107 q 98 159 85 145 q 131 182 112 174 q 174 191 150 191 q 228 179 205 191 q 266 148 251 168 q 289 101 281 128 q 297 44 297 75 m 292 645 q 285 603 292 623 q 266 569 278 583 q 235 546 253 554 q 194 537 216 537 q 152 546 171 537 q 119 569 133 554 q 98 603 106 583 q 91 645 91 623 q 99 687 91 667 q 121 722 107 707 q 153 746 135 737 q 192 754 172 754 q 232 746 214 754 q 264 722 250 737 q 285 687 277 707 q 292 645 292 667 z "},"<":{"ha":765,"x_min":54,"x_max":679,"o":"m 54 497 l 679 774 l 679 628 l 247 438 l 247 437 l 679 247 l 679 99 l 54 371 l 54 497 z "},"=":{"ha":801,"x_min":88,"x_max":713,"o":"m 88 370 l 713 368 l 713 239 l 88 237 l 88 370 m 88 628 l 713 626 l 713 497 l 88 495 l 88 628 z "},">":{"ha":765,"x_min":86,"x_max":711,"o":"m 711 376 l 86 99 l 86 245 l 518 435 l 518 437 l 86 627 l 86 774 l 711 503 l 711 376 z "},"?":{"ha":699,"x_min":51,"x_max":635,"o":"m 444 85 q 436 43 444 63 q 413 9 427 24 q 380 -14 399 -5 q 342 -22 362 -22 q 304 -14 322 -22 q 272 9 286 -5 q 251 43 258 24 q 243 85 243 63 q 251 128 243 108 q 273 163 259 148 q 305 186 287 178 q 344 195 323 195 q 384 186 366 195 q 416 163 402 178 q 437 128 429 148 q 444 85 444 108 m 433 746 q 427 806 433 779 q 408 854 422 834 q 372 886 395 875 q 314 898 349 898 q 281 894 297 898 q 251 883 264 890 q 226 869 237 877 q 208 853 215 861 q 228 819 222 839 q 234 784 234 798 q 229 754 234 770 q 213 724 224 738 q 185 700 202 709 q 144 690 168 690 q 102 697 120 690 q 73 718 85 705 q 56 749 62 731 q 51 789 51 768 q 73 863 51 826 q 134 929 95 899 q 225 977 172 958 q 340 995 278 995 q 479 976 422 995 q 570 926 536 957 q 620 855 605 895 q 635 774 635 815 q 614 684 635 725 q 561 607 593 642 q 491 541 528 571 q 421 484 454 511 q 368 434 389 458 q 347 389 347 411 q 360 359 347 371 q 401 348 373 348 q 421 349 411 348 q 444 353 432 350 l 466 282 q 430 267 448 273 q 393 258 411 261 q 358 253 375 254 q 329 252 342 252 q 285 257 307 252 q 246 273 263 262 q 219 303 229 285 q 208 348 208 321 q 213 380 208 365 q 230 415 217 396 q 264 459 242 434 q 321 518 286 484 q 366 566 346 543 q 401 617 387 590 q 424 675 416 644 q 433 746 433 706 z "},"@":{"ha":1101,"x_min":66,"x_max":1036,"o":"m 486 201 q 522 220 504 201 q 556 270 540 239 q 588 341 573 301 q 613 426 602 382 q 632 515 625 471 q 642 600 640 560 q 602 605 624 605 q 553 592 575 605 q 513 557 531 579 q 482 506 496 535 q 458 443 468 476 q 444 373 449 409 q 439 302 439 337 q 452 228 439 254 q 486 201 465 201 m 960 39 q 776 -95 878 -53 q 559 -138 674 -138 q 409 -119 477 -138 q 286 -67 340 -100 q 190 12 231 -35 q 121 112 149 58 q 80 229 94 167 q 66 356 66 291 q 81 477 66 415 q 125 598 96 539 q 198 709 155 656 q 299 800 241 761 q 427 862 356 839 q 581 884 498 884 q 719 866 656 884 q 832 817 782 848 q 921 743 883 785 q 985 650 960 700 q 1023 544 1010 600 q 1036 433 1036 489 q 1024 329 1036 376 q 992 245 1013 282 q 945 180 972 208 q 888 134 918 153 q 827 107 858 116 q 766 98 795 98 q 717 104 742 98 q 671 127 692 111 q 638 173 651 144 q 626 250 626 203 q 626 264 626 257 q 627 278 627 271 q 587 198 608 231 q 542 145 565 165 q 495 115 519 124 q 449 106 471 106 q 393 117 420 106 q 346 153 366 129 q 313 216 326 178 q 301 307 301 254 q 322 440 301 375 q 383 558 342 506 q 483 642 423 610 q 621 673 543 673 q 695 666 651 673 q 787 644 740 659 q 778 576 783 613 q 768 502 773 540 q 758 426 763 464 q 750 354 753 388 q 744 293 746 321 q 742 248 742 265 q 744 217 742 232 q 753 191 747 203 q 769 173 759 180 q 793 165 779 165 q 841 179 820 165 q 878 214 863 192 q 905 263 894 235 q 922 321 916 292 q 932 380 929 351 q 935 433 935 409 q 907 601 935 528 q 830 724 879 674 q 716 799 782 774 q 573 825 650 825 q 461 807 513 825 q 364 758 408 789 q 285 684 320 727 q 225 589 250 640 q 188 481 201 538 q 175 364 175 424 q 208 178 175 259 q 298 42 241 97 q 432 -41 355 -13 q 593 -70 508 -70 q 681 -61 635 -70 q 770 -34 726 -52 q 855 12 814 -16 q 929 76 896 39 l 960 39 z "},"A":{"ha":928,"x_min":5,"x_max":922,"o":"m 572 290 l 271 285 l 248 220 q 240 196 245 210 q 228 166 235 182 q 215 135 222 150 q 204 107 209 119 l 303 111 l 303 0 l 5 0 l 5 96 q 55 109 35 96 q 90 144 75 122 q 116 194 104 165 q 139 254 127 223 l 410 997 l 507 997 l 803 240 q 813 213 807 230 q 825 177 819 196 q 836 138 831 157 q 842 103 840 119 l 922 107 l 922 0 l 548 0 l 548 92 q 600 106 585 92 q 615 146 615 121 q 611 177 615 160 q 600 214 607 195 l 572 290 m 306 389 l 537 389 l 474 563 q 441 664 456 614 q 420 752 427 713 l 419 752 q 402 682 414 728 q 368 569 391 635 l 306 389 z "},"B":{"ha":918,"x_min":69,"x_max":880,"o":"m 69 92 q 111 96 92 93 q 142 111 130 99 q 161 146 155 123 q 168 212 168 170 l 168 745 q 169 782 168 764 q 170 817 169 800 q 171 847 170 833 q 174 869 172 861 l 69 865 l 69 972 l 454 975 q 601 961 535 975 q 712 917 666 946 q 784 842 759 887 q 809 736 809 798 q 798 671 809 701 q 762 614 786 642 q 700 563 738 586 q 610 526 663 541 l 610 525 q 730 490 680 514 q 814 433 781 466 q 863 360 847 400 q 880 276 880 319 q 854 157 880 208 q 784 70 829 105 q 677 18 739 35 q 542 0 615 0 l 69 0 l 69 92 m 363 98 q 433 99 400 98 q 499 100 467 99 q 572 116 541 102 q 622 154 602 130 q 651 210 642 178 q 661 281 661 242 q 645 360 661 328 q 605 412 630 393 q 547 440 579 432 q 481 448 515 448 q 369 447 416 448 l 369 221 q 369 184 369 202 q 368 150 368 166 q 366 120 367 134 q 363 98 365 107 m 441 547 q 515 563 486 548 q 564 603 545 578 q 590 662 582 629 q 597 734 597 695 q 584 804 597 776 q 550 848 571 831 q 503 871 530 864 q 450 878 477 878 q 418 873 433 877 q 393 858 404 870 q 375 824 382 846 q 369 761 369 801 l 369 545 l 441 547 z "},"C":{"ha":956,"x_min":49,"x_max":943,"o":"m 267 500 q 287 335 267 410 q 343 205 306 260 q 434 120 380 151 q 559 90 488 90 q 646 102 602 90 q 732 135 690 113 q 810 189 773 157 q 876 261 847 221 l 943 200 q 836 86 892 130 q 726 19 781 43 q 619 -14 671 -5 q 525 -22 568 -22 q 329 16 417 -22 q 179 121 241 54 q 83 278 117 188 q 49 472 49 368 q 62 598 49 535 q 103 720 76 662 q 170 828 130 778 q 265 916 211 878 q 386 974 319 953 q 534 995 454 995 q 592 990 562 995 q 653 977 622 986 q 715 956 684 968 q 773 926 745 943 l 774 926 l 770 985 l 877 985 l 877 661 l 786 661 q 709 835 767 777 q 553 894 652 894 q 426 861 480 894 q 337 772 372 827 q 284 647 302 718 q 267 500 267 576 z "},"D":{"ha":1055,"x_min":69,"x_max":1005,"o":"m 69 972 l 474 974 q 641 955 566 974 q 774 902 715 936 q 877 822 833 868 q 949 723 920 776 q 991 611 977 669 q 1005 496 1005 553 q 992 381 1005 439 q 952 267 979 322 q 882 163 924 212 q 779 78 839 115 q 642 21 720 42 q 467 0 564 0 l 69 0 l 69 92 q 111 96 92 93 q 142 111 130 100 q 161 146 155 123 q 168 212 168 170 l 168 745 q 169 782 168 764 q 170 817 169 800 q 171 847 170 833 q 174 869 172 861 l 69 865 l 69 972 m 471 881 q 426 878 446 882 q 394 863 407 875 q 375 827 382 850 q 369 763 369 803 l 369 228 q 369 191 369 209 q 368 156 368 172 q 366 125 367 139 q 363 103 365 112 q 391 104 374 104 q 428 103 408 104 q 466 102 447 102 q 496 102 484 102 q 627 133 572 102 q 717 215 682 163 q 769 332 752 266 q 786 467 786 397 q 764 650 786 573 q 701 778 742 728 q 602 854 660 829 q 471 881 543 879 z "},"E":{"ha":867,"x_min":69,"x_max":810,"o":"m 369 456 l 369 228 q 369 191 369 209 q 368 157 368 173 q 366 127 367 140 q 363 105 365 114 l 550 106 q 611 116 581 106 q 665 150 642 126 q 704 211 689 173 q 719 306 719 250 l 810 306 l 802 0 l 69 0 l 69 92 q 111 96 92 93 q 142 111 130 100 q 161 146 155 123 q 168 212 168 170 l 168 745 q 169 782 168 764 q 170 817 169 800 q 171 847 170 833 q 174 869 172 861 l 69 865 l 69 972 l 764 972 l 772 703 l 681 703 q 665 795 681 760 q 625 850 649 830 q 570 876 600 869 q 512 882 541 883 l 462 881 q 423 877 440 880 q 394 861 406 873 q 375 825 382 848 q 369 760 369 801 l 369 552 l 532 552 l 526 672 l 633 672 l 633 334 l 542 334 q 531 403 542 378 q 502 440 520 428 q 459 455 484 452 q 406 456 434 457 l 369 456 z "},"F":{"ha":793,"x_min":69,"x_max":772,"o":"m 369 422 l 369 228 q 369 191 369 209 q 368 156 368 172 q 366 125 367 139 q 363 103 365 112 l 487 107 l 487 0 l 69 0 l 69 92 q 111 96 92 93 q 142 111 130 100 q 161 146 155 123 q 168 212 168 170 l 168 745 q 169 782 168 764 q 170 817 169 800 q 171 847 170 833 q 174 869 172 861 l 69 865 l 69 972 l 764 972 l 772 703 l 681 703 q 665 795 681 760 q 625 850 649 830 q 570 876 600 869 q 512 882 541 883 l 462 881 q 423 877 440 880 q 394 861 406 873 q 375 825 382 848 q 369 760 369 801 l 369 518 l 513 518 l 507 638 l 614 638 l 614 300 l 522 300 q 511 369 522 344 q 482 406 500 394 q 439 421 464 418 q 386 422 414 423 l 369 422 z "},"G":{"ha":1048,"x_min":50,"x_max":1023,"o":"m 931 47 l 897 47 q 818 36 857 47 q 734 12 778 25 q 638 -12 690 -1 q 523 -22 587 -22 q 321 16 410 -22 q 173 121 233 54 q 81 278 113 188 q 50 472 50 368 q 63 598 50 535 q 103 720 76 662 q 170 828 130 778 q 263 916 210 878 q 385 974 317 953 q 532 995 452 995 q 594 990 559 995 q 664 977 628 986 q 733 956 699 968 q 795 926 768 943 l 797 926 l 792 985 l 899 985 l 899 661 l 808 661 q 776 763 799 719 q 719 836 753 806 q 642 879 685 865 q 551 894 600 894 q 425 861 478 894 q 336 772 371 827 q 284 647 301 718 q 267 500 267 576 q 286 335 267 410 q 341 204 304 259 q 432 119 378 149 q 557 88 486 88 q 603 91 577 88 q 656 97 629 93 q 708 109 683 102 q 753 125 734 116 l 753 254 q 754 292 753 273 q 755 327 754 310 q 756 357 755 343 q 759 379 758 370 l 654 375 l 654 482 l 1023 482 l 1023 391 q 982 385 1000 389 q 954 369 965 381 q 937 333 943 356 q 931 270 931 309 l 931 47 z "},"H":{"ha":1120,"x_min":69,"x_max":1051,"o":"m 952 228 q 952 191 952 209 q 951 156 951 172 q 949 125 950 139 q 947 103 948 112 l 1051 107 l 1051 0 l 652 0 l 652 92 q 694 96 675 93 q 725 111 713 99 q 745 146 738 123 q 751 212 751 170 l 751 437 l 369 433 l 369 228 q 369 191 369 209 q 368 156 368 172 q 366 125 367 139 q 363 103 365 112 l 468 107 l 468 0 l 69 0 l 69 92 q 111 96 92 93 q 142 111 130 99 q 161 146 155 123 q 168 212 168 170 l 168 745 q 169 782 168 764 q 170 817 169 800 q 171 847 170 833 q 174 869 172 861 l 69 865 l 69 972 l 468 972 l 468 881 q 426 876 444 880 q 395 861 408 873 q 376 826 382 850 q 369 760 369 802 l 369 543 l 751 543 l 751 745 q 752 782 751 764 q 753 817 752 800 q 754 847 753 833 q 757 869 755 861 l 652 865 l 652 972 l 1051 972 l 1051 881 q 1009 876 1027 880 q 978 861 991 873 q 959 826 966 850 q 952 760 952 802 l 952 228 z "},"I":{"ha":537,"x_min":69,"x_max":468,"o":"m 369 228 q 369 191 369 209 q 368 156 368 172 q 366 125 367 139 q 363 103 365 112 l 468 107 l 468 0 l 69 0 l 69 92 q 111 96 92 93 q 142 111 130 99 q 161 146 155 123 q 168 212 168 170 l 168 745 q 169 782 168 764 q 170 817 169 800 q 171 847 170 833 q 174 869 172 861 l 69 865 l 69 972 l 468 972 l 468 881 q 426 876 444 880 q 395 861 408 873 q 376 826 382 850 q 369 760 369 802 l 369 228 z "},"J":{"ha":627,"x_min":1,"x_max":589,"o":"m 490 353 q 471 182 490 253 q 415 65 452 111 q 324 -1 378 20 q 200 -22 270 -22 q 123 -11 159 -22 q 60 20 87 0 q 17 66 33 39 q 1 126 1 94 q 8 170 1 149 q 27 207 14 191 q 60 233 41 223 q 104 242 79 242 q 146 234 129 242 q 175 213 163 226 q 192 182 186 199 q 197 149 197 165 q 194 124 197 137 q 185 100 191 112 q 194 89 188 94 q 205 82 199 85 q 218 78 212 79 q 227 77 224 77 q 273 103 257 77 q 289 188 289 129 l 289 745 q 289 782 289 764 q 290 817 290 800 q 292 847 291 833 q 294 869 293 861 l 190 865 l 190 972 l 589 972 l 589 881 q 547 876 565 880 q 516 861 528 873 q 496 826 503 850 q 490 760 490 802 l 490 353 z "},"K":{"ha":989,"x_min":69,"x_max":987,"o":"m 369 549 l 470 549 l 576 730 q 601 773 588 751 q 627 814 614 795 q 651 847 640 833 q 671 869 662 862 l 671 871 l 583 865 l 583 972 l 923 972 l 923 881 q 874 874 899 880 q 821 855 848 869 q 765 812 793 840 q 708 739 736 785 l 575 526 l 575 524 q 625 487 604 507 q 662 444 646 467 l 805 242 q 848 185 826 212 q 894 138 871 159 q 940 105 917 118 q 987 92 964 93 l 987 0 l 773 0 q 747 15 764 1 q 711 51 730 30 q 671 96 691 72 q 637 141 652 121 l 500 341 q 481 368 491 354 q 460 396 471 382 q 439 420 449 409 q 419 438 429 431 l 369 437 l 369 228 q 369 191 369 209 q 368 156 368 172 q 366 125 367 139 q 363 103 365 112 l 468 107 l 468 0 l 69 0 l 69 92 q 111 96 92 93 q 142 111 130 99 q 161 146 155 123 q 168 212 168 170 l 168 745 q 169 782 168 764 q 170 817 169 800 q 171 847 170 833 q 174 869 172 861 l 69 865 l 69 972 l 468 972 l 468 881 q 426 876 444 880 q 395 861 408 873 q 376 826 382 850 q 369 760 369 802 l 369 549 z "},"L":{"ha":840,"x_min":69,"x_max":818,"o":"m 69 0 l 69 92 q 111 96 92 93 q 142 111 130 99 q 161 146 155 123 q 168 212 168 170 l 168 745 q 169 782 168 764 q 170 817 169 800 q 171 847 170 833 q 174 869 172 861 l 69 865 l 69 972 l 468 972 l 468 881 q 426 876 444 880 q 395 861 408 873 q 376 826 382 850 q 369 760 369 802 l 369 228 q 369 191 369 209 q 368 157 368 173 q 366 127 367 140 q 363 105 365 114 l 550 106 q 679 162 632 106 q 726 333 726 219 l 818 333 l 810 0 l 69 0 z "}}}
